<svg xmlns="http://www.w3.org/2000/svg" width="159" height="45.004" viewBox="0 0 159 45.004">
  <g id="Group_4372" data-name="Group 4372" transform="translate(-192.945 -6503)">
    <g id="Group_3800" data-name="Group 3800" transform="translate(-219.651 5950.228)">
      <path id="Path_1868" data-name="Path 1868" d="M434.879,559.554c4.819.058,10.066,2.394,14.346,6.952.368.391.346.588-.019.94-1.216,1.171-2.435,2.343-3.581,3.582-.591.638-.941.715-1.586.027a14.224,14.224,0,0,0-10.2-4.645A13.6,13.6,0,0,0,419.8,578.159c-.767,4.812-.071,9.335,3.076,13.21,5.015,6.176,14.562,6.564,20.509.912.5-.476.968-1.394,1.509-1.314.581.086,1.061.907,1.571,1.42.91.916,1.8,1.853,2.72,2.757.357.35.493.579.062,1.025-6.091,6.31-13.457,8.493-21.831,6.087-8.183-2.351-12.787-8.24-14.375-16.49a23.151,23.151,0,0,1,2.018-14.976C418.548,563.751,425.439,559.562,434.879,559.554Z" transform="translate(0 -5.435)" fill="#17313b"/>
      <path id="Path_1869" data-name="Path 1869" d="M1087.859,569.041a13.2,13.2,0,0,1,7.462-2.335,11.219,11.219,0,0,1,11.581,10.182,23.558,23.558,0,0,1,.206,3.165c-.01,5.395-.022,10.79.015,16.184.005.755-.2.939-.929.914-1.686-.058-3.376-.055-5.063,0-.75.024-1-.15-.993-.959.036-5.494.016-10.988,0-16.482a9.156,9.156,0,0,0-.128-1.479c-.628-3.757-2.839-5.263-6.582-4.5-3.6.734-5.546,3.229-5.566,7.239q-.038,7.6.01,15.191c0,.743-.137,1.026-.954.994-1.751-.07-3.508-.047-5.261-.008-.613.014-.774-.166-.773-.778q.026-21.4,0-42.794c0-.607.147-.793.767-.779,1.786.042,3.575.051,5.361,0,.712-.021.865.2.86.881-.031,4.733-.016,9.466-.016,14.2Z" transform="translate(-535.528 -0.016)" fill="#17313b"/>
      <path id="Path_1870" data-name="Path 1870" d="M704.5,653.869a12.864,12.864,0,0,1-10.176,1.994c-4.636-.967-7.825-4.451-8.689-9.346a19.359,19.359,0,0,1-.291-3.357c-.006-5.495.015-10.99-.022-16.484-.005-.8.235-.993,1-.967,1.653.056,3.311.061,4.964,0,.811-.031,1.055.183,1.049,1.026-.041,5.329-.019,10.658-.022,15.987a10.027,10.027,0,0,0,.5,3.517A4.328,4.328,0,0,0,697.1,649.3c4.5.118,7.4-2.649,7.44-7.17q.059-7.7-.011-15.392c-.007-.837.227-1.062,1.044-1.03,1.653.063,3.311.057,4.964,0,.759-.025,1,.16,1,.966-.036,6.289-.02,12.578-.02,18.867,0,3.012-.037,6.025.023,9.036.018.869-.264,1.032-1.054,1-1.62-.061-3.246-.072-4.864,0-.871.041-1.236-.191-1.074-1.08A3.13,3.13,0,0,0,704.5,653.869Z" transform="translate(-218.543 -58.443)" fill="#17313b"/>
      <path id="Path_1871" data-name="Path 1871" d="M941.365,622.817a16.176,16.176,0,0,1,11.456,4.674c.385.365.392.56.018.921-1.286,1.241-2.575,2.482-3.789,3.791-.521.562-.818.5-1.334.024a9.143,9.143,0,0,0-9.316-2.052c-3.968,1.184-6.1,4.789-5.64,9.328a8.373,8.373,0,0,0,7.42,7.377,8.917,8.917,0,0,0,7.461-2.464c.518-.5.858-.608,1.416-.016,1.224,1.3,2.518,2.536,3.809,3.77.372.356.393.558,0,.931a15.786,15.786,0,0,1-16.122,4.033,14.265,14.265,0,0,1-10.617-11.684C924.18,631.418,930.925,622.8,941.365,622.817Z" transform="translate(-411.246 -56.13)" fill="#17313b"/>
      <path id="Path_1872" data-name="Path 1872" d="M844.831,603.379c0,3.607-.015,7.214.013,10.82.005.633-.143.858-.815.84-1.753-.048-3.509-.059-5.26,0-.76.027-.919-.2-.916-.933.029-7.081,0-14.163.037-21.244,0-.871-.162-1.238-1.116-1.154-1.051.092-2.116,0-3.175.028-.469.011-.639-.147-.633-.624.02-1.754.025-3.508,0-5.261-.008-.523.161-.691.679-.677,1.157.031,2.318-.026,3.474.024.635.028.773-.2.767-.8-.028-2.779.013-5.559-.03-8.338-.011-.729.158-.975.925-.947,1.685.062,3.377.069,5.061,0,.869-.037,1.024.282,1.01,1.07-.047,2.713.006,5.427-.035,8.14-.01.7.188.9.882.875,1.354-.055,2.713,0,4.069-.024.47-.008.723.059.712.631-.034,1.753-.029,3.508,0,5.261.008.525-.17.682-.684.671-1.356-.03-2.716.042-4.069-.03-.78-.041-.915.233-.908.945C844.851,596.231,844.831,599.805,844.831,603.379Z" transform="translate(-336.857 -17.905)" fill="#17313b"/>
      <path id="Path_1873" data-name="Path 1873" d="M620.96,574.95c0-7.05.016-14.1-.021-21.151,0-.834.215-1.057,1.035-1.024,1.686.066,3.377.057,5.063,0,.709-.023.868.194.865.88-.028,6.123-.016,12.247-.016,18.37,0,8.043-.011,16.086.018,24.13,0,.773-.184,1.01-.973.98-1.686-.063-3.377-.061-5.063,0-.756.027-.929-.2-.926-.937C620.972,589.117,620.96,582.033,620.96,574.95Z" transform="translate(-166.954)" fill="#17313b"/>
      <path id="Path_1874" data-name="Path 1874" d="M981.947,685.17A5.189,5.189,0,1,1,987.214,680,5.131,5.131,0,0,1,981.947,685.17Z" transform="translate(-452.108 -97.78)" fill="#ef4335"/>
    </g>
  </g>
</svg>
