<svg xmlns="http://www.w3.org/2000/svg" width="43.763" height="43.601" viewBox="0 0 43.763 43.601">
  <g id="Group_3768" data-name="Group 3768" transform="translate(-826.842 -604.089)" opacity="0.85">
    <path id="Path_22" data-name="Path 22" d="M870.6,625.939q0,8.716,0,17.433c0,2.758-1.518,4.31-4.262,4.312q-17.6.012-35.207,0c-2.757,0-4.291-1.546-4.292-4.285q0-17.518,0-35.036c0-2.7,1.527-4.266,4.221-4.268q17.646-.015,35.292,0c2.74,0,4.247,1.556,4.248,4.326Q870.607,617.18,870.6,625.939Zm-2.57-8.946H829.412v.829q0,12.769,0,25.539c0,1.359.4,1.751,1.8,1.751q17.51,0,35.02,0c1.424,0,1.8-.392,1.8-1.838q0-12.684,0-25.368Zm0-2.683c0-1.915,0-3.733,0-5.55s-.273-2.094-2.058-2.094q-17.249,0-34.5,0a2.15,2.15,0,0,0-1.006.068c-.4.24-.978.641-.993.994-.091,2.179-.046,4.363-.046,6.581Z" transform="translate(0)" fill="#80929a"/>
    <path id="Path_23" data-name="Path 23" d="M926.335,722.175a1.3,1.3,0,0,1-1.163-1.924c.956-2.281,1.938-4.55,2.913-6.823,1.524-3.553,3.057-7.1,4.569-10.659.312-.735.754-1.229,1.608-1.065s1.2,1.032.8,1.969q-1.986,4.669-4,9.327-1.747,4.075-3.491,8.152A1.409,1.409,0,0,1,926.335,722.175Z" transform="translate(-81.408 -80.904)" fill="#80929a"/>
    <path id="Path_24" data-name="Path 24" d="M868.094,730.65c1.682,1.346,3.26,2.6,4.833,3.868.824.663,1.008,1.409.517,2.042s-1.28.633-2.1-.017q-2.937-2.337-5.861-4.691c-1-.808-1.014-1.586-.034-2.378q2.952-2.386,5.927-4.745c.78-.62,1.544-.619,2.039-.027.515.618.349,1.4-.456,2.05C871.372,728.033,869.775,729.3,868.094,730.65Z" transform="translate(-31.409 -99.632)" fill="#80929a"/>
    <path id="Path_25" data-name="Path 25" d="M998.039,730.594l-4.584-3.673c-.2-.16-.41-.309-.592-.487a1.3,1.3,0,0,1-.163-1.77,1.267,1.267,0,0,1,1.761-.207c.69.5,1.342,1.053,2.008,1.585,1.4,1.118,2.8,2.231,4.195,3.36.989.8.991,1.581,0,2.383q-2.953,2.385-5.928,4.743c-.773.614-1.55.6-2.035-.007s-.336-1.379.422-1.991C994.731,733.231,996.349,731.945,998.039,730.594Z" transform="translate(-137.275 -99.575)" fill="#80929a"/>
    <path id="Path_26" data-name="Path 26" d="M997.533,636.651c-1.194,0-2.389.014-3.583,0-.949-.015-1.493-.494-1.5-1.266s.532-1.287,1.472-1.294q3.626-.027,7.251,0c.95.006,1.493.493,1.5,1.265s-.532,1.279-1.472,1.3C999.979,636.667,998.755,636.651,997.533,636.651Z" transform="translate(-137.3 -24.859)" fill="#80929a"/>
    <path id="Path_27" data-name="Path 27" d="M859.982,635.452a1.267,1.267,0,1,1-1.337-1.239A1.257,1.257,0,0,1,859.982,635.452Z" transform="translate(-25.374 -24.974)" fill="#80929a"/>
    <path id="Path_28" data-name="Path 28" d="M889.982,635.5a1.267,1.267,0,1,1-1.2-1.289A1.259,1.259,0,0,1,889.982,635.5Z" transform="translate(-50.247 -24.974)" fill="#80929a"/>
    <path id="Path_29" data-name="Path 29" d="M919.981,635.454a1.267,1.267,0,1,1-1.259-1.232A1.257,1.257,0,0,1,919.981,635.454Z" transform="translate(-75.118 -24.982)" fill="#80929a"/>
  </g>
</svg>
