<svg xmlns="http://www.w3.org/2000/svg" width="41.13" height="41.145" viewBox="0 0 41.13 41.145">
  <g id="Group_3783" data-name="Group 3783" transform="translate(-3690.085 -1222.577)" opacity="0.85">
    <path id="Path_127" data-name="Path 127" d="M3698.295,1255.181c2.192,0,4.385-.005,6.577,0,1.118,0,1.626.5,1.628,1.605q.01,6.62,0,13.24a1.384,1.384,0,0,1-1.583,1.563q-6.62.011-13.241,0a1.385,1.385,0,0,1-1.583-1.563q-.012-6.663,0-13.326a1.366,1.366,0,0,1,1.539-1.518C3693.852,1255.172,3696.073,1255.181,3698.295,1255.181Z" transform="translate(0 -27.027)" fill="#80929a"/>
    <path id="Path_128" data-name="Path 128" d="M3706.5,1375.385c0,2.193.005,4.385,0,6.578,0,1.12-.5,1.628-1.6,1.629q-6.62.01-13.241,0a1.387,1.387,0,0,1-1.564-1.583q-.012-6.62,0-13.24a1.382,1.382,0,0,1,1.56-1.585q6.663-.012,13.326,0a1.369,1.369,0,0,1,1.522,1.538C3706.514,1370.943,3706.5,1373.164,3706.5,1375.385Z" transform="translate(-0.002 -119.876)" fill="#80929a"/>
    <path id="Path_129" data-name="Path 129" d="M3810.3,1383.6c-2.193,0-4.385.006-6.578,0-1.12,0-1.628-.5-1.63-1.6q-.01-6.62,0-13.24a1.382,1.382,0,0,1,1.579-1.565q6.62-.011,13.241,0a1.387,1.387,0,0,1,1.587,1.559q.012,6.663,0,13.326a1.369,1.369,0,0,1-1.537,1.523C3814.743,1383.606,3812.522,1383.6,3810.3,1383.6Z" transform="translate(-92.851 -119.879)" fill="#80929a"/>
    <path id="Path_130" data-name="Path 130" d="M3823.56,1233.678a1.573,1.573,0,0,1-.507,1.029q-4.715,4.7-9.426,9.414a1.376,1.376,0,0,1-2.222-.021q-4.689-4.67-9.359-9.36a1.374,1.374,0,0,1-.009-2.221q4.671-4.689,9.359-9.359a1.4,1.4,0,0,1,2.283.019q4.658,4.641,9.3,9.294A1.625,1.625,0,0,1,3823.56,1233.678Z" transform="translate(-92.345)" fill="#80929a"/>
  </g>
</svg>
