<svg xmlns="http://www.w3.org/2000/svg" width="40" height="40.245" viewBox="0 0 40 40.245">
  <g id="Group_4343" data-name="Group 4343" transform="translate(-2126 -3351)">
    <path id="Subtraction_2" data-name="Subtraction 2" d="M34.983,38.723a.459.459,0,0,1-.316-.171,1.028,1.028,0,0,0-.407-.235c-.172-.063-.308-.114-.344-.328-.061-.371-8.724-8.728-8.812-8.813l-1.563.563a16.99,16.99,0,0,1-8,2.009,16.285,16.285,0,0,1-8.749-2.572A13.725,13.725,0,0,1,2.1,24.334,15.851,15.851,0,0,1,.253,18.982,19.356,19.356,0,0,1,.23,12.865a15.716,15.716,0,0,1,1.5-4.641,14.345,14.345,0,0,1,2.719-3.8,12.969,12.969,0,0,1,4.781-3A21.713,21.713,0,0,1,16.475,0,13.4,13.4,0,0,1,25.1,3.115c3.152,2.451,6.375,5.69,6.375,11.125,0,.74,0,1.375.007,1.935.02,3.408.022,3.846-.945,5.565a18.59,18.59,0,0,0-1.626,3.938l8.314,7.937,1.25,1.813v1.25l0,.007a13.931,13.931,0,0,1-.933,1.306,2.641,2.641,0,0,1-1,.563.732.732,0,0,1-.23.035,1.664,1.664,0,0,1-.3-.036,1.73,1.73,0,0,0-.3-.036.715.715,0,0,0-.231.036c-.086.028-.159.06-.223.089A.71.71,0,0,1,34.983,38.723ZM15.6,2.99a12.5,12.5,0,1,0,12.5,12.5A12.514,12.514,0,0,0,15.6,2.99Z" transform="translate(2126.759 3352.01)" fill="#92a2a8"/>
    <g id="Group_4342" data-name="Group 4342" transform="translate(9)">
      <path id="Path_110" data-name="Path 110" d="M2997.79,1329.235a16.649,16.649,0,0,1,16.161,17.054,15.652,15.652,0,0,1-2.442,8.29c-.47.73-.312,1.076.243,1.607,2.613,2.5,5.188,5.035,7.766,7.569a3.286,3.286,0,0,1-1.962,5.692,3.394,3.394,0,0,1-2.781-1.124c-2.6-2.557-5.229-5.083-7.81-7.658a1.027,1.027,0,0,0-1.485-.225c-5.758,3.082-11.553,3.06-17.08-.415a15.959,15.959,0,0,1-7.771-15.143A16.646,16.646,0,0,1,2997.79,1329.235Zm14.767,16.671a15.311,15.311,0,1,0-7.122,12.946,1.238,1.238,0,0,1,1.851.177c2.757,2.754,5.562,5.461,8.348,8.185a2.392,2.392,0,0,0,1.238.811,1.9,1.9,0,0,0,1.624-3.317c-2.823-2.776-5.644-5.556-8.5-8.3a1.127,1.127,0,0,1-.173-1.758A14.817,14.817,0,0,0,3012.557,1345.906Z" transform="translate(-863.602 2021.783)" fill="#92a2a8"/>
      <path id="Path_111" data-name="Path 111" d="M3012.561,1374.332a13.151,13.151,0,1,1,13.094-13.257A13.116,13.116,0,0,1,3012.561,1374.332Zm-.06-24.908a11.754,11.754,0,1,0,11.8,11.716A11.786,11.786,0,0,0,3012.5,1349.423Z" transform="translate(-878.845 2006.521)" fill="#92a2a8"/>
      <path id="Path_112" data-name="Path 112" d="M3023.553,1395.65a4,4,0,0,1-2.264-7.32,4.044,4.044,0,0,1,4.746.219,3.814,3.814,0,0,1,1.186,4.495,1.246,1.246,0,0,0,.409,1.792,4.08,4.08,0,0,1,.662.67c.349.448.711.644,1.267.312a1.428,1.428,0,0,1,1.189-.163c.9.349,1.215-.222,1.563-.829a6.755,6.755,0,0,1,.566-.866,1.447,1.447,0,0,0,.194-1.819,2.351,2.351,0,0,1,.779-2.862,2.45,2.45,0,0,1,2.822-.126,2.577,2.577,0,0,1,1.092,2.795,2.367,2.367,0,0,1-2.333,1.837,1.144,1.144,0,0,0-1.3.76,7.038,7.038,0,0,1-.616.946,1.43,1.43,0,0,0-.133,1.961,2.965,2.965,0,0,1-.689,3.687,3.184,3.184,0,0,1-3.842.312,3.021,3.021,0,0,1-1.277-3.533,1.177,1.177,0,0,0-.41-1.585,2.666,2.666,0,0,1-.466-.467c-.5-.639-1.01-1.059-1.86-.451A2,2,0,0,1,3023.553,1395.65Zm2.567-3.946a2.6,2.6,0,1,0-2.577,2.584A2.627,2.627,0,0,0,3026.12,1391.7Zm6.223,7.058a1.808,1.808,0,0,0-1.829-1.759,1.844,1.844,0,0,0-1.735,1.773,1.78,1.78,0,0,0,1.8,1.781A1.756,1.756,0,0,0,3032.343,1398.762Zm3.061-6.315a1.086,1.086,0,0,0,1.139-1.118,1.052,1.052,0,0,0-1.071-1.179,1.118,1.118,0,0,0-1.215,1.148A1.136,1.136,0,0,0,3035.4,1392.447Z" transform="translate(-895.172 1974.365)" fill="#92a2a8"/>
    </g>
  </g>
</svg>
