<svg xmlns="http://www.w3.org/2000/svg" width="44" height="37.627" viewBox="0 0 44 37.627">
  <g id="Group_3767" data-name="Group 3767" transform="translate(-1032.726 -251.629)">
    <path id="Path_20" data-name="Path 20" d="M1068.346,349.914a7.228,7.228,0,0,1-6.471-4.646,4.356,4.356,0,0,0-4.629-3c-1.779.075-3.565.041-5.347.009a4.047,4.047,0,0,0-4.192,2.781,7.754,7.754,0,0,1-14.833-1.515,6.8,6.8,0,0,1,.27-3.788c1.22-3.2,2.415-6.412,3.728-9.574a6.158,6.158,0,0,1,6.819-3.787,1.377,1.377,0,0,1,1.1.723,11.157,11.157,0,0,0,19.212.22,1.635,1.635,0,0,1,.984-.764,6.206,6.206,0,0,1,7.549,3.46c1.333,3.191,2.621,6.407,3.759,9.672C1078.048,344.73,1074.275,349.9,1068.346,349.914ZM1043.3,338.1a3.7,3.7,0,1,0-3.763-3.7A3.711,3.711,0,0,0,1043.3,338.1Zm22-.169a1.1,1.1,0,0,0,1.14-1.305c-.049-.768.1-1.147.989-1.031a1.066,1.066,0,0,0,1.34-1.081,1.084,1.084,0,0,0-1.324-1.114c-.854.084-1.064-.224-1.008-1.026.051-.737-.3-1.311-1.141-1.275a1.033,1.033,0,0,0-1.024,1.288c.1.854-.215,1.077-1.026,1.011a1.091,1.091,0,0,0-1.319,1.124,1.075,1.075,0,0,0,1.35,1.075c.883-.118,1.065.254.991,1.035A1.085,1.085,0,0,0,1065.3,337.928Z" transform="translate(0 -60.659)" fill="#80929a"/>
    <path id="Path_21" data-name="Path 21" d="M1108.237,251.629a9.292,9.292,0,1,1-9.29,9.269A9.263,9.263,0,0,1,1108.237,251.629Zm1.943,4.508a.6.6,0,0,0-.539-.614c-.479-.051-.619.311-.736.686-.856,2.732-1.72,5.462-2.571,8.2-.128.411-.323.923.256,1.12.65.221.762-.342.9-.789q1.273-4.053,2.543-8.108C1110.082,256.479,1110.124,256.329,1110.181,256.136Zm-5.027,1.748a.555.555,0,0,0-.354-.509c-.3-.152-.545.011-.751.216-.8.79-1.589,1.588-2.386,2.379a.694.694,0,0,0,0,1.128q1.167,1.15,2.317,2.315c.321.324.678.516,1.039.117.33-.365.089-.688-.194-.97-.553-.551-1.09-1.118-1.662-1.647-.3-.279-.3-.467,0-.746.57-.532,1.107-1.1,1.658-1.651C1104.991,258.339,1105.182,258.171,1105.153,257.884Zm6.808,5.854a1.082,1.082,0,0,0,.348-.17c.889-.874,1.778-1.751,2.643-2.649.3-.31.15-.636-.119-.906q-1.189-1.194-2.383-2.384c-.29-.288-.622-.485-.969-.12-.33.348-.169.679.129.975.554.549,1.087,1.121,1.661,1.648.328.3.355.495.006.81-.6.543-1.151,1.142-1.728,1.712a.661.661,0,0,0-.185.763C1111.454,263.644,1111.652,263.734,1111.961,263.739Z" transform="translate(-53.794)" fill="#80929a"/>
  </g>
</svg>
