<svg xmlns="http://www.w3.org/2000/svg" width="37.862" height="44" viewBox="0 0 37.862 44">
  <g id="Group_3781" data-name="Group 3781" transform="translate(-2245.756 -640.03)" opacity="0.85">
    <path id="Path_78" data-name="Path 78" d="M2343.144,678.413c-5.532.3-10.785.6-16.042.834a1.585,1.585,0,0,1-1.162-.72c-1.551-2.715-3.046-5.464-4.517-8.223a1.318,1.318,0,0,1-.073-1.112c3.095-4.364,6.234-8.7,9.492-13.215Z" transform="translate(-64.726 -11.407)" fill="#80929a"/>
    <path id="Path_79" data-name="Path 79" d="M2298.073,715.75a3.736,3.736,0,0,1-.819.931,41.8,41.8,0,0,1-5.623,3.009c-1.114.429-2.511.009-3.771.387-.236.071-.79-.477-1.005-.85-1.087-1.885-2.109-3.808-3.157-5.715a1.518,1.518,0,0,1,.609-2.284c.364-.235.56-.728.836-1.1.264-.357.458-.839.812-1.045,1.8-1.048,3.644-2.013,5.461-3.029a1.081,1.081,0,0,1,1.681.409q2.372,4.285,4.707,8.59A6.92,6.92,0,0,1,2298.073,715.75Z" transform="translate(-37.655 -47.062)" fill="#80929a"/>
    <path id="Path_80" data-name="Path 80" d="M2370.872,668.485a7.682,7.682,0,0,1-1.362-1.509c-3.815-6.873-7.581-13.773-11.359-20.666-.615-1.121-1.247-2.233-1.832-3.37a1.77,1.77,0,0,1,.666-2.653c1.021-.536,1.922-.24,2.577.95q6.677,12.136,13.317,24.292C2373.7,667.024,2372.918,668.463,2370.872,668.485Z" transform="translate(-89.581 0)" fill="#80929a"/>
    <path id="Path_81" data-name="Path 81" d="M2315.087,752.774l4.279-2.337a25.97,25.97,0,0,0,5.756,8.815c.778.853.69,1.472-.324,2-.921.484-1.843.969-2.739,1.5-.858.505-1.38.241-1.827-.585C2318.569,759.088,2316.874,756.028,2315.087,752.774Z" transform="translate(-60.314 -78.978)" fill="#80929a"/>
    <path id="Path_82" data-name="Path 82" d="M2393.922,680.834l-3.382-6.18a3.348,3.348,0,0,1,3.465,1.547C2394.994,677.609,2394.965,679.074,2393.922,680.834Z" transform="translate(-114.289 -24.736)" fill="#80929a"/>
  </g>
</svg>
