<svg xmlns="http://www.w3.org/2000/svg" width="24.088" height="43.971" viewBox="0 0 24.088 43.971">
  <g id="Group_3766" data-name="Group 3766" transform="translate(-534.863 -123.914)" opacity="0.85">
    <path id="Path_19" data-name="Path 19" d="M534.864,145.909q0-8.5,0-16.994a4.669,4.669,0,0,1,4.964-5q7.124-.009,14.247,0a4.56,4.56,0,0,1,4.874,4.884q0,17.122-.014,34.245a4.586,4.586,0,0,1-4.859,4.827q-7.166.017-14.333.009a4.6,4.6,0,0,1-4.878-4.895Q534.856,154.449,534.864,145.909Zm2.405-.175c0,4.835.014,9.671-.017,14.506,0,.645.155.793.794.791q9.013-.041,18.025,0c.649,0,.794-.165.792-.8q-.033-14.506,0-29.012c0-.656-.174-.792-.8-.79q-9.012.038-18.025,0c-.662,0-.785.18-.782.8C537.282,136.064,537.269,140.9,537.269,145.735Zm9.578,20.781a2.026,2.026,0,0,0,2.006-2.1,2.037,2.037,0,1,0-2.006,2.1Zm.063-38.476c.686,0,1.371,0,2.057,0,.467,0,.807-.2.813-.679s-.324-.7-.795-.7q-2.014,0-4.027,0c-.455,0-.8.169-.806.677s.33.69.788.694C545.6,128.042,546.253,128.038,546.91,128.039Zm-3.545-.667c-.038-.447-.291-.68-.665-.675a.625.625,0,0,0-.66.716.607.607,0,0,0,.659.627A.624.624,0,0,0,543.365,127.372Z" transform="translate(0 0)" fill="#80929a"/>
  </g>
</svg>
