<svg xmlns="http://www.w3.org/2000/svg" width="36.115" height="32.245" viewBox="0 0 36.115 32.245">
  <g id="Group_3780" data-name="Group 3780" transform="translate(-1.5 -3)" opacity="0.85">
    <path id="Path_116" data-name="Path 116" d="M12.568,9.449A6.449,6.449,0,1,1,19.017,15.9a6.449,6.449,0,0,1-6.449-6.449Zm12.9,5.159a5.159,5.159,0,1,1,5.159,5.159A5.159,5.159,0,0,1,25.466,14.608Zm-23.216,0a5.159,5.159,0,1,1,5.159,5.159A5.159,5.159,0,0,1,2.25,14.608Zm6.982,9.23a11.608,11.608,0,0,1,21.323,7.534,1.29,1.29,0,0,1-.64.977,21.953,21.953,0,0,1-21.8,0,1.29,1.29,0,0,1-.64-.977A11.672,11.672,0,0,1,9.232,23.84Z" transform="translate(0.54 0)" fill="#80929a" fill-rule="evenodd"/>
    <path id="Path_117" data-name="Path 117" d="M7.66,14.254a14.251,14.251,0,0,0-2.249,8.831,16.659,16.659,0,0,1-3.034-.757l-.2-.069a.968.968,0,0,1-.641-.838l-.017-.208a6.449,6.449,0,0,1,6.139-6.96ZM33.7,23.085a14.251,14.251,0,0,0-2.249-8.831,6.449,6.449,0,0,1,6.139,6.96l-.017.208a.968.968,0,0,1-.641.836l-.2.069A16.557,16.557,0,0,1,33.7,23.085Z" transform="translate(0 8.1)" fill="#80929a"/>
  </g>
</svg>
