<svg xmlns="http://www.w3.org/2000/svg" width="255.494" height="72.768" viewBox="0 0 255.494 72.768">
  <g id="Group_4334" data-name="Group 4334" transform="translate(355.787 -744.608)">
    <path id="Path_1885" data-name="Path 1885" d="M74.794,888.663q0-3.1,0-6.194,0-27.951,0-55.9c0-.225-.094-.477.107-.675.3.014.473.241.665.427q2.076,2.016,4.144,4.04a.928.928,0,0,0,.708.3c1.489,0,2.978.014,4.467.036.792.012.979.178,1.093.945q.865,5.833,1.724,11.666c.63,4.239,1.27,8.476,1.9,12.715.558,3.772,1.1,7.547,1.655,11.319.49,3.321.994,6.641,1.489,9.961.311,2.086.616,4.173.93,6.258.044.29-.007.457-.336.539q-9.2,2.271-18.39,4.56A.65.65,0,0,1,74.794,888.663Z" transform="translate(-386.825 -73.028)" fill="#5e8d3e"/>
    <path id="Path_1886" data-name="Path 1886" d="M606.817,905.874c.194-.019.254-.2.359-.321a11.817,11.817,0,0,1,7.1-4.087,9.107,9.107,0,0,1,4.171.2,6.358,6.358,0,0,1,4.468,5.22,15.574,15.574,0,0,1-.063,5.706c-.911,5.638-2.1,11.226-3.134,16.842-.174.947-.388,1.888-.534,2.839-.055.359-.2.423-.521.422-2.573-.012-5.146-.016-7.719,0-.419,0-.5-.1-.42-.5q.955-4.926,1.877-9.859c.515-2.74,1.031-5.479,1.519-8.224a13.777,13.777,0,0,0,.159-3.038,2.62,2.62,0,0,0-3.624-2.586,6.126,6.126,0,0,0-3.181,2.479,16.5,16.5,0,0,0-2.743,6.8q-1.4,7.241-2.77,14.487c-.06.316-.135.474-.529.47q-3.885-.038-7.77,0c-.453,0-.435-.156-.371-.493q1.923-10.082,3.832-20.167,2.159-11.353,4.325-22.7c.169-.886.178-.885,1.084-.885,2.4,0,4.808.011,7.211-.01.459,0,.511.12.429.543q-1.612,8.31-3.188,16.626C606.77,905.714,606.736,905.8,606.817,905.874Z" transform="translate(-852.466 -129.248)" fill="#fefefe"/>
    <path id="Path_1887" data-name="Path 1887" d="M1853.468,1043.113c.394-1.138.77-2.254,1.164-3.362,2.076-5.833,4.3-11.61,6.565-17.371.09-.229.15-.4.472-.4,2.877.016,5.755.009,8.625.009.072.121-.009.208-.048.291-3.681,7.888-7.328,15.794-11.065,23.655a64.822,64.822,0,0,1-7.819,12.823,22.517,22.517,0,0,1-9.228,7.163c-.579.231-1.184.394-1.771.6-.3.106-.439.044-.543-.28q-1.052-3.3-2.149-6.593c-.107-.32-.034-.417.269-.523a17.91,17.91,0,0,0,5.674-3.168,14.87,14.87,0,0,0,3.462-4.143,2.352,2.352,0,0,0,.271-1.654q-2.558-13.754-5.092-27.513c-.123-.663-.124-.662.542-.662,2.658,0,5.315.009,7.973-.01.383,0,.472.119.508.477.384,3.82.8,7.638,1.184,11.458.3,2.911.569,5.825.854,8.738A.564.564,0,0,0,1853.468,1043.113Z" transform="translate(-1970.617 -249.2)" fill="#fefefe"/>
    <path id="Path_1888" data-name="Path 1888" d="M1682.31,896.435c.9,0,1.795,0,2.692,0,.232,0,.321.025.264.308q-.6,2.956-1.142,5.922c-.063.347-.272.279-.478.28-1.693,0-3.386.011-5.079-.006-.346,0-.493.07-.563.443q-2,10.662-4.024,21.318c-.135.714-.293,1.425-.393,2.143-.045.32-.183.36-.458.359q-3.936-.013-7.872,0c-.336,0-.395-.09-.336-.4.522-2.721,1.032-5.445,1.548-8.168q1.444-7.62,2.9-15.238c.066-.345.007-.474-.381-.464-1.049.026-2.1,0-3.149.014-.308,0-.441-.011-.359-.406q.575-2.78,1.068-5.575c.078-.439.256-.557.687-.542.981.034,1.965-.022,2.944.025.453.022.566-.153.627-.544a21.86,21.86,0,0,1,1.938-6.422c2.618-5.265,7.195-7.341,12.494-7.148a13.159,13.159,0,0,1,3.544.572c.306.1.414.209.322.566q-.771,2.966-1.479,5.947c-.083.346-.189.4-.538.31a7.581,7.581,0,0,0-2.811-.282,4.692,4.692,0,0,0-3.458,2.315,12.3,12.3,0,0,0-1.46,4.444c-.064.308.171.223.316.224C1680.549,896.438,1681.43,896.435,1682.31,896.435Z" transform="translate(-1815.436 -123.727)" fill="#fefefe"/>
    <path id="Path_1889" data-name="Path 1889" d="M368.5,1047.6a17.7,17.7,0,0,1-8.106-1.89c-.343-.179-.436-.325-.288-.725.638-1.724,1.24-3.462,1.823-5.2.127-.381.217-.448.6-.264a15.478,15.478,0,0,0,6.878,1.682,4.77,4.77,0,0,0,1.636-.3,2.858,2.858,0,0,0,1.34-4.489,7.3,7.3,0,0,0-2.25-1.867,24.912,24.912,0,0,1-3.3-2.253c-4.581-3.867-3.523-9.166-.979-12.255a11.465,11.465,0,0,1,6.515-3.846,19.261,19.261,0,0,1,10.07.326c1.4.428,1.394.468.943,1.838-.5,1.506-1.007,3.007-1.485,4.519-.1.323-.193.374-.515.245a12.968,12.968,0,0,0-5.49-1.01,4.719,4.719,0,0,0-2.179.6,2.518,2.518,0,0,0-.675,3.977,7.309,7.309,0,0,0,2.012,1.524,21.292,21.292,0,0,1,3.8,2.6c3.04,2.725,3.725,5.845,2.344,9.8-1.075,3.079-3.435,4.889-6.41,5.98A18.829,18.829,0,0,1,368.5,1047.6Z" transform="translate(-643.119 -243.529)" fill="#fefefe"/>
    <path id="Path_1890" data-name="Path 1890" d="M1506.028,1052.608c.87-4.6,1.731-9.147,2.59-13.694q1.548-8.19,3.087-16.383c.083-.446.206-.623.716-.615,2.521.036,5.043.016,7.564.016h.583c-.4,2.1-.8,4.158-1.195,6.213q-1.75,9.131-3.5,18.263-.562,2.936-1.121,5.873c-.038.2-.084.332-.341.331C1511.639,1052.6,1508.865,1052.608,1506.028,1052.608Z" transform="translate(-1672.701 -249.141)" fill="#fefefe"/>
    <path id="Path_1891" data-name="Path 1891" d="M1580.491,902.315a3.978,3.978,0,0,1-4.182-4.171,4.981,4.981,0,0,1,6.433-4.982,4.113,4.113,0,0,1,2.854,4.249A4.877,4.877,0,0,1,1580.491,902.315Z" transform="translate(-1735.839 -133.266)" fill="#fefefe"/>
    <path id="Path_1892" data-name="Path 1892" d="M-311.867,814.659q.007-30.6,0-61.192a1.825,1.825,0,0,0-.062-.6,1.087,1.087,0,0,0-.789-.041c-.669.176-1.341.353-1.991.587-.394.142-.522.03-.642-.338a12.141,12.141,0,0,0-1.641-3.3,6.577,6.577,0,0,0-5.875-3.09.548.548,0,0,1-.479-.209,5.673,5.673,0,0,0-5.49-1.755,9.891,9.891,0,0,0-5.4,2.92,25.928,25.928,0,0,0-6.755,12.293c-.153.582-.025,1.341-.455,1.712a4.965,4.965,0,0,1-1.705.587c-1.995.639-4.017,1.193-5.99,1.9a1.488,1.488,0,0,0-1.1,1.261c-.1.737-.219,1.47-.317,2.207q-.648,4.875-1.288,9.752c-.423,3.251-.833,6.5-1.255,9.756q-.685,5.279-1.38,10.558c-.433,3.335-.857,6.672-1.3,10.006-.039.3-.023.434.339.5,3.981.674,7.958,1.373,11.937,2.063q6.567,1.138,13.135,2.272,6.918,1.2,13.835,2.387c1.5.257,3,.5,4.5.751C-311.785,815.342-311.867,814.989-311.867,814.659Zm-21.342-55.506c-1.873.569-3.745,1.142-5.68,1.733a10.27,10.27,0,0,1,.541-2,24.643,24.643,0,0,1,5.106-8.966,8.889,8.889,0,0,1,4.5-2.877,3.677,3.677,0,0,1,2.941.39c-4.095,2.674-5.97,6.739-7.047,11.3A.491.491,0,0,1-333.209,759.153Zm9.884-3.07c-2.308.706-4.613,1.421-7.057,2.176,1.053-3.267,2.286-6.294,5.1-8.313,1.286-.924,1.082-.859,1.555.535a18.165,18.165,0,0,1,.7,5.154A.379.379,0,0,1-323.325,756.084Zm5.605-1.751c-.891.256-1.772.543-2.657.82-.2.062-.386.163-.4-.2a19.663,19.663,0,0,0-1.042-5.937,4.894,4.894,0,0,1,3.045,2.178,11.019,11.019,0,0,1,1.3,2.679C-317.38,754.154-317.437,754.251-317.72,754.332Z" fill="#94be47"/>
    <path id="Path_1893" data-name="Path 1893" d="M1210.135,1021.7c-1.337-4.929-5.232-7.4-10.234-6.466a11.6,11.6,0,0,0-6.778,4.24c-.192.226-.369.465-.553.7l-.1-.059c.151-1.394.286-2.79.462-4.181.044-.351-.035-.424-.372-.422-2.285.013-4.569.016-6.854,0-.353,0-.422.138-.451.436-.066.673-.155,1.344-.245,2.014-.485,3.619-1.1,7.216-1.786,10.8q-1.676,8.708-3.313,17.423c-.765,4.033-1.52,8.067-2.294,12.1-.064.33,0,.4.326.394q3.935-.018,7.87,0c.282,0,.41-.061.466-.371.7-3.838,1.422-7.673,2.135-11.51.178-.959.166-.943,1.057-.6a12.751,12.751,0,0,0,7.826.358,15.489,15.489,0,0,0,8.855-6.223,23.373,23.373,0,0,0,4.274-10.92A19.262,19.262,0,0,0,1210.135,1021.7Zm-8.5,5.487a19.179,19.179,0,0,1-3.327,10.359,6.818,6.818,0,0,1-3.315,2.725,5.245,5.245,0,0,1-4.816-.759.441.441,0,0,1-.231-.5c.639-3.195.993-6.445,1.822-9.6a11.987,11.987,0,0,1,3.111-5.71,4.589,4.589,0,0,1,3.53-1.492,2.948,2.948,0,0,1,2.694,1.906A7.218,7.218,0,0,1,1201.632,1027.189Z" transform="translate(-1377.631 -242.964)" fill="#fefefe"/>
    <path id="Path_1894" data-name="Path 1894" d="M940.344,1024.118a10.261,10.261,0,0,0-4.99-7.538,13.005,13.005,0,0,0-9.316-1.4,16.092,16.092,0,0,0-10.909,7.425,21.6,21.6,0,0,0-3.522,11.646,15.867,15.867,0,0,0,.245,3.37c.879,4.295,3.2,7.444,7.5,8.679a14.683,14.683,0,0,0,14.79-3.489C939.554,1037.764,941.4,1031.338,940.344,1024.118Zm-8.576,2.894a21.7,21.7,0,0,1-2.537,9.863,7.977,7.977,0,0,1-1.977,2.421,3.919,3.919,0,0,1-6.461-1.981,11.342,11.342,0,0,1-.208-4.93,19.482,19.482,0,0,1,2.4-7.419,7.972,7.972,0,0,1,2.222-2.539,4.208,4.208,0,0,1,3.216-.775,3.687,3.687,0,0,1,3.027,2.851A7.663,7.663,0,0,1,931.768,1027.013Z" transform="translate(-1138.657 -242.833)" fill="#fefefe"/>
    <path id="Path_1895" data-name="Path 1895" d="M-235.558,999.257a14.412,14.412,0,0,1-9.283-3.25.8.8,0,0,1-.317-.949c.443-1.752.85-3.513,1.238-5.278.1-.435.225-.372.513-.177a15.274,15.274,0,0,0,4.586,2.223,6.4,6.4,0,0,0,1.754.236,2.754,2.754,0,0,0,2.766-3.492,4.728,4.728,0,0,0-1.663-2.6c-1.2-1.041-2.58-1.856-3.791-2.891a8.652,8.652,0,0,1-3.161-6.448,12.45,12.45,0,0,1,4.278-10.4,13.956,13.956,0,0,1,7.06-3.219,17.59,17.59,0,0,1,6.3-.114c.413.078.817.208,1.226.314.265.069.373.172.284.5-.679,2.493-1.333,4.993-1.987,7.493-.074.283-.156.376-.48.255a11.678,11.678,0,0,0-5.474-.742,5.108,5.108,0,0,0-2.641.932,2.871,2.871,0,0,0-.336,4.356A14.5,14.5,0,0,0-232,977.992a23.723,23.723,0,0,1,4.042,3.05,10.128,10.128,0,0,1,2.884,8.341,11.366,11.366,0,0,1-1.657,5.369,9.552,9.552,0,0,1-7.864,4.5C-234.913,999.276-235.236,999.257-235.558,999.257Z" transform="translate(-99.353 -195.902)" fill="#fefefe"/>
  </g>
</svg>
