<svg xmlns="http://www.w3.org/2000/svg" width="43.043" height="32.845" viewBox="0 0 43.043 32.845">
  <g id="Group_3776" data-name="Group 3776" transform="translate(-2526.88 -905.955)" opacity="0.85">
    <path id="Path_104" data-name="Path 104" d="M2572.192,937.223a16.518,16.518,0,0,0-8.286-4.474,24.279,24.279,0,0,0-5.072-.606c-1.395-.019-1.926-.56-1.927-1.946q0-11.171,0-22.342c0-1.368.593-1.947,1.959-1.9,3.844.144,7.484.928,10.568,3.427a12.045,12.045,0,0,1,2.4,2.679,2.057,2.057,0,0,1,.363,1.181C2572.191,921.169,2572.192,929.092,2572.192,937.223Z" transform="translate(-24.978 0)" fill="#80929a"/>
    <path id="Path_105" data-name="Path 105" d="M2661.943,937.146c0-8.056,0-15.979,0-23.9a2.3,2.3,0,0,1,.461-1.319,13.425,13.425,0,0,1,8.706-5.492,22.626,22.626,0,0,1,4.247-.477,1.6,1.6,0,0,1,1.872,1.816q.007,11.255,0,22.51c0,1.3-.565,1.829-1.928,1.862a19.755,19.755,0,0,0-11.388,3.387C2663.259,936,2662.667,936.547,2661.943,937.146Z" transform="translate(-112.354 0)" fill="#80929a"/>
    <path id="Path_106" data-name="Path 106" d="M2544.782,964.167a42.693,42.693,0,0,0-7.8-.511,47.054,47.054,0,0,0-7.986,1.013c-1.349.279-2.116-.343-2.117-1.713q-.008-11.978,0-23.955a1.8,1.8,0,0,1,2.414-1.782c.339.1.247.324.249.523.01.812,0,1.625,0,2.438q0,7.9,0,15.8c0,2.886,1.481,4.378,4.356,4.478,3.728.13,7.268.893,10.309,3.23C2544.413,963.84,2544.594,964.007,2544.782,964.167Z" transform="translate(0 -25.933)" fill="#80929a"/>
    <path id="Path_107" data-name="Path 107" d="M2675.558,964.675a14.006,14.006,0,0,1,6.162-3.2,22.534,22.534,0,0,1,5.067-.659,3.933,3.933,0,0,0,4.144-4.259q.014-9.078-.012-18.156c0-.651.149-.859.82-.828,1.3.062,1.864.561,1.864,1.836q.006,11.936,0,23.872c0,1.426-.751,2.035-2.16,1.745a40.089,40.089,0,0,0-12.268-.86C2678.023,964.287,2676.88,964.487,2675.558,964.675Z" transform="translate(-123.683 -26.302)" fill="#80929a"/>
  </g>
</svg>
