<svg xmlns="http://www.w3.org/2000/svg" width="234" height="68.437" viewBox="0 0 234 68.437">
  <g id="Group_4336" data-name="Group 4336" transform="translate(-1553 -1773.878)">
    <path id="Path_1896" data-name="Path 1896" d="M1630.144,1823.827c3.246.129,3.246.129,3.246,3.333,0,2.07-.154,4.156.046,6.206.178,1.831-.645,1.97-2.076,1.811a28.632,28.632,0,0,1-12.033-3.923c-.438-.269-.8-.768-1.591-.643v7.96c0,4.628.013,9.256,0,13.883-.039,11.135-7.007,19.32-18,21.162-.287.048-.621-.012-.726.378h-1.1a1.33,1.33,0,0,0-1.463,0h-1.829c-3.183-.465-6.318-1.088-8.956-3.1-.561-.428-1.526-.775-.818-1.818.758-.353,1.423.034,2.1.267a20.07,20.07,0,0,0,26.9-19.255q0-9.769,0-19.538c0-.426-.011-.853.016-1.278.124-1.888.6-2.2,2.259-1.276a31.467,31.467,0,0,0,9.171,3.5c.3.059.6.119.9.163,3.082.444,3.305.188,3.41-2.883C1629.661,1827.127,1629.059,1825.374,1630.144,1823.827Z" transform="translate(-20.038 -31.681)" fill="#fe004f"/>
    <path id="Path_1897" data-name="Path 1897" d="M1553.322,1857.365a20.553,20.553,0,0,1,22.193-17.5c1.892.163.56,1.807,1.15,2.574a.771.771,0,0,1-.254.5c-1.557.552-3.224.453-4.821.884a20.123,20.123,0,0,0-11.388,30.516c.6.887,1.577,1.565,1.66,2.766-.946.637-1.44-.18-1.991-.662a19.032,19.032,0,0,1-6.87-12.808v-4.389C1553.438,1858.678,1552.97,1857.952,1553.322,1857.365Z" transform="translate(0 -41.804)" fill="#00f1e9"/>
    <path id="Path_1898" data-name="Path 1898" d="M1553.322,1887.849c.036.652.243,1.334-.322,1.884V1887.9A2.737,2.737,0,0,0,1553.322,1887.849Z" transform="translate(0 -72.288)" fill="#51f5f0"/>
    <path id="Path_1899" data-name="Path 1899" d="M1617,1960.274a.848.848,0,0,1,1.463,0Z" transform="translate(-40.593 -117.959)" fill="#fe89ae"/>
    <path id="Path_1900" data-name="Path 1900" d="M1570.6,1841.692a9.266,9.266,0,0,1-3.082-2.263,21.661,21.661,0,0,1-5.089-11.252,20.047,20.047,0,0,1,4.87-16.147,19.116,19.116,0,0,1,14.961-6.968c.574.514.485,1.215.5,1.872.03,1.1.01,2.192.01,3.287,0,3.464-.005,3.407-3.344,3.576a9.027,9.027,0,0,0-7.2,14.122,38.994,38.994,0,0,0,2.64,3.017l.743.6a24.156,24.156,0,0,0,3.925,2.27,8.852,8.852,0,0,0,11.441-4.657,13.589,13.589,0,0,0,.992-5.525q-.026-19.439-.009-38.878c0-.547-.009-1.1.007-1.643.063-2.272.4-2.651,2.693-2.654a26.569,26.569,0,0,1,5.455.17,1.807,1.807,0,0,1,1.069,1.361,18.13,18.13,0,0,0,4.794,7.749c.366,1.115,1.639,1.3,2.236,2.172a24.905,24.905,0,0,0,6.54,3.506,1.772,1.772,0,0,1,1.078.622,1.233,1.233,0,0,0,.137.248c-.014,2.376-.1,4.755-.014,7.127.046,1.266-.411,1.5-1.571,1.447a26.775,26.775,0,0,1-12.582-3.94c-.411-.246-.822-.493-1.242-.745-.536.49-.285,1.069-.286,1.567-.022,7.07.04,14.14-.031,21.209a20.666,20.666,0,0,1-21.7,20.566C1575.779,1843.4,1573.216,1842.438,1570.6,1841.692Z" transform="translate(-5.866 -4.134)" fill="#fff"/>
    <path id="Path_1901" data-name="Path 1901" d="M1882.159,1844.975c-2.453,2.52-2.514,2.46-.477,5.407l9.944,14.376c-3.051,0-5.807-.005-8.562,0-.849,0-1.063-.72-1.429-1.237-2.485-3.515-4.951-7.044-7.362-10.482-2.452,1.211-3,3.151-2.815,5.636.145,1.9.865,4.424-.32,5.609-1.095,1.1-3.586.227-5.46.307a9.706,9.706,0,0,0-1.1.011c-1.258.2-1.633-.257-1.626-1.566q.083-16.443.008-32.886c0-1.07.177-1.525,1.373-1.449a38.317,38.317,0,0,0,5.294,0c1.47-.11,1.962.255,1.922,1.84-.12,4.794-.043,9.594-.043,14.9a63.729,63.729,0,0,0,5.079-5.094,8.361,8.361,0,0,1,8.361-3.456,30.217,30.217,0,0,0,4.633.041" transform="translate(-196.594 -34.761)" fill="#fff"/>
    <path id="Path_1902" data-name="Path 1902" d="M2123.679,1845.311c2.366-2.449,4.752-4.88,7.088-7.358a2.9,2.9,0,0,1,2.373-1.022c2.837.069,5.677.024,8.859.024-1.284,1.3-2.314,2.375-3.372,3.418-1.951,1.925-3.863,3.895-5.9,5.724-1.091.98-1.3,1.65-.352,2.956,3.323,4.576,6.482,9.27,9.7,13.922.336.486.652.986,1.19,1.8-3.063,0-5.82,0-8.576,0-.771,0-.958-.672-1.291-1.144-2.283-3.227-4.57-6.452-6.8-9.714-.515-.752-.809-.914-1.6-.259a4.112,4.112,0,0,0-1.813,3.839c.18,1.933-.019,3.9.065,5.842.046,1.073-.343,1.329-1.345,1.292-1.947-.072-3.9-.07-5.846,0-1,.036-1.36-.229-1.356-1.3q.055-16.719,0-33.438c0-1.041.4-1.187,1.28-1.162,1.887.053,3.781.1,5.663-.013,1.255-.074,1.641.257,1.616,1.568-.088,4.505-.034,9.014-.034,13.521v1.238Z" transform="translate(-356.266 -34.779)" fill="#fff"/>
    <path id="Path_1903" data-name="Path 1903" d="M1764.94,1828.784c4.019,0,8.039.023,12.059-.016,1.012-.01,1.444.091.987,1.275-.653,1.7-1.134,3.459-1.642,5.208-.248.854-.629,1.416-1.631,1.219a2.1,2.1,0,0,0-.547,0c-1.741.124-4.057-.765-5.058.358-.86.966-.293,3.234-.3,4.927-.014,7.126-.03,14.252.018,21.377.008,1.139-.2,1.634-1.475,1.548a37.13,37.13,0,0,0-5.294,0c-1.546.118-2.062-.254-2.041-1.949.1-8.281.016-16.565.079-24.848.01-1.329-.25-1.826-1.677-1.723-1.939.14-3.9-.009-5.844.054-.941.03-1.294-.239-1.25-1.221.073-1.641.086-3.291,0-4.931-.06-1.1.389-1.306,1.374-1.3C1756.778,1828.811,1760.859,1828.784,1764.94,1828.784Z" transform="translate(-125.787 -34.813)" fill="#fff"/>
    <path id="Path_1904" data-name="Path 1904" d="M1973.9,1828.8c-.768,2.468-1.483,4.767-2.2,7.064-.218.7-.793.62-1.343.618-1.523-.007-3.052.082-4.567-.03-1.174-.086-1.4.338-1.389,1.43.045,8.346-.017,16.692.064,25.037.014,1.5-.448,1.858-1.84,1.771a44.162,44.162,0,0,0-5.479,0c-1.249.077-1.494-.374-1.488-1.535.048-8.345-.032-16.692.074-25.037.021-1.687-.479-2.055-2.026-1.943-1.878.136-3.776-.01-5.662.051-.871.029-1.162-.223-1.128-1.114.066-1.764.03-3.533.014-5.3-.006-.6,0-1.031.832-1.029C1956.4,1828.8,1965.047,1828.8,1973.9,1828.8Z" transform="translate(-249.845 -34.822)" fill="#fff"/>
    <path id="Path_1905" data-name="Path 1905" d="M1623.627,1776.832c-2.006-.016-4.02.064-6.017-.08-1.543-.111-2.035.262-2.025,1.941.082,13.748.039,27.5.057,41.245a13.922,13.922,0,0,1-.349,3.616,9.2,9.2,0,0,1-7.49,7.135,8.629,8.629,0,0,1-9.008-3.284c2.88.885,5.736,1.106,8.471-.455a9.159,9.159,0,0,0,4.907-8.385c.028-4.262.011-8.524.011-12.786,0-10.046.023-20.092-.027-30.138-.007-1.31.253-1.828,1.691-1.756,2.551.127,5.117.124,7.668,0,1.422-.068,2.19.224,2.032,1.8a2.964,2.964,0,0,0,.193.888Q1623.882,1776.789,1623.627,1776.832Z" transform="translate(-29.046 0)" fill="#01f1e9"/>
    <path id="Path_1906" data-name="Path 1906" d="M1829.792,1872.245c0-3.6.045-7.192-.026-10.786-.022-1.129.292-1.473,1.427-1.417,1.945.1,3.9.072,5.848.007.927-.031,1.265.2,1.259,1.2q-.062,11.06-.005,22.121c0,.871-.245,1.16-1.132,1.135-2.07-.06-4.146-.076-6.214,0-1.047.041-1.181-.417-1.172-1.291C1829.812,1879.557,1829.792,1875.9,1829.792,1872.245Z" transform="translate(-175.542 -54.647)" fill="#fff"/>
    <path id="Path_1907" data-name="Path 1907" d="M1588.424,1873.21a9.4,9.4,0,0,1,5.921-17.493c1.4.223,1.669-.2,1.607-1.458-.113-2.3-.1-4.615-.142-6.923l.273-.289c3.158.141,3.158.141,3.158,3.341,0,2.368-.008,4.736,0,7.1,0,.741.027,1.2-1.065,1.019a9.038,9.038,0,0,0-9.538,3.883,9.217,9.217,0,0,0-.358,10.307A2.218,2.218,0,0,1,1588.424,1873.21Z" transform="translate(-19.418 -46.408)" fill="#fd014f"/>
    <path id="Path_1908" data-name="Path 1908" d="M2067.493,1876.369c5.3-1.473,9.2-4.559,11-9.875a14.65,14.65,0,0,0-10.8-18.925c-.286-.064-.565-.162-.844-.245a14.564,14.564,0,0,1,12.565,21.969C2076.769,1873.736,2072.851,1876.343,2067.493,1876.369Z" transform="translate(-325.92 -46.583)" fill="#fd024f"/>
    <path id="Path_1909" data-name="Path 1909" d="M2027.555,1847.207c-6.258,1.545-10.576,5.2-11.912,11.648a14.551,14.551,0,0,0,10.129,16.973c.4.127.791.27,1.186.4-4.553.37-10.031-3.2-12.412-8.08a14.725,14.725,0,0,1,11.746-21.018A8.029,8.029,0,0,1,2027.555,1847.207Z" transform="translate(-291.809 -46.457)" fill="#01f1e9"/>
    <path id="Path_1910" data-name="Path 1910" d="M1834.021,1828.889a4.172,4.172,0,0,1,4.319,4.2,4.279,4.279,0,0,1-4.164,4.218,4.222,4.222,0,0,1-4.3-4.245A4.133,4.133,0,0,1,1834.021,1828.889Z" transform="translate(-175.612 -34.891)" fill="#fff"/>
    <path id="Path_1911" data-name="Path 1911" d="M1666.692,1781.406c.034-.087.072-.173.112-.259a1.213,1.213,0,0,0,.36.04c2.069-.408,2.866.48,2.882,2.536.019,2.353,1.5,4.279,2.179,6.449-1.8-.552-2.49-2.191-3.436-3.551A16.556,16.556,0,0,1,1666.692,1781.406Z" transform="translate(-72.111 -4.575)" fill="#fc0551"/>
    <path id="Path_1912" data-name="Path 1912" d="M1695.554,1815.99a12.819,12.819,0,0,1-7.617-4.128,28.678,28.678,0,0,0,6.894,1.874C1696.344,1813.9,1695.442,1815.185,1695.554,1815.99Z" transform="translate(-85.586 -24.092)" fill="#06eee6"/>
    <path id="Path_1913" data-name="Path 1913" d="M2048.106,1858a14.135,14.135,0,0,0-12.422-10.9,24.453,24.453,0,0,0-5.191.008c-6.937.633-12.564,6.869-12.78,14.162a14.505,14.505,0,0,0,12.183,14.863,24.684,24.684,0,0,0,6.424.011,11.547,11.547,0,0,0,4-1.1A15.015,15.015,0,0,0,2048.106,1858Zm-15,10.842a7.308,7.308,0,0,1-7.172-7.1,7.233,7.233,0,0,1,14.465-.063A7.3,7.3,0,0,1,2033.1,1868.837Z" transform="translate(-294.748 -46.353)" fill="#fff"/>
  </g>
</svg>
