<svg xmlns="http://www.w3.org/2000/svg" width="237.667" height="58.248" viewBox="0 0 237.667 58.248">
  <g id="Group_4374" data-name="Group 4374" transform="translate(-585.451 -446.404)">
    <path id="Path_1847" data-name="Path 1847" d="M613.971,487.568l-.284.046-.286-.015-.723.514-.105.053a1.145,1.145,0,0,0-1.1.818l-15.293,11.34c2.146-6.576,3.85-12.274,5.9-17.846.825-2.246.292-3.365-1.545-4.637-4.9-3.4-9.666-6.984-15.086-10.932,6.668,0,12.536-.177,18.385.079,2.668.116,3.677-.88,4.377-3.243,1.66-5.608,3.558-11.144,5.564-17.341,2.079,6.357,4.063,12.107,5.806,17.929.584,1.949,1.422,2.67,3.489,2.623,6.007-.136,12.02-.048,18.255-.048-.343,1.367-1.571,1.7-2.385,2.341-4.7,3.7-9.949,6.677-14.3,10.839-3.683,1.785-6.676,4.582-10.029,6.851Z" transform="translate(0)" fill="#06da8d"/>
    <path id="Path_1848" data-name="Path 1848" d="M841.971,510.422c0,3.036-.106,5.654.036,8.258.1,1.823-.551,2.293-2.313,2.275-1.693-.016-2.372-.338-2.349-2.225.1-8.336.037-16.674.052-25.011,0-1.075-.422-2.472,1.559-2.3,1.482.128,3.448-.561,2.865,2.338,4.584-3.853,10.22-3.786,13.786-.019,3.719,3.929,3.885,12.6.319,16.735C852.558,514.378,847.364,514.485,841.971,510.422Zm-.075-8.175c0,.421-.033.844.005,1.261.371,4.086,3.118,6.593,6.8,6.217,3.709-.378,5.912-4.394,5.125-9.343-.6-3.793-3.695-6.393-6.941-5.787a5.369,5.369,0,0,0-4.251,3.356A8.354,8.354,0,0,0,841.9,502.247Z" transform="translate(-92.319 -16.304)" fill="#191919"/>
    <path id="Path_1849" data-name="Path 1849" d="M693.232,495.625c0-3.475-.073-6.952.032-10.424.049-1.628-.442-2.258-2.115-2.127s-3.37-.035-5.051.048c-1.465.073-2.393-.088-2.264-1.98.108-1.588.295-2.46,2.255-2.424q9.947.181,19.9,0c2.032-.041,1.814,1.05,1.859,2.353.046,1.334-.081,2.332-1.8,2.041a5.607,5.607,0,0,0-.946-.007c-6.755.043-6.755.043-6.755,6.68,0,5.265-.1,10.533.048,15.794.058,2.089-.368,2.83-2.668,2.886-2.595.063-2.578-1.18-2.521-3.046C693.3,502.155,693.232,498.889,693.232,495.625Z" transform="translate(-36.053 -11.842)" fill="#191919"/>
    <path id="Path_1850" data-name="Path 1850" d="M904.322,502.082c-.01-6.879,4.1-11.141,10.806-11.215,6.4-.07,10.844,4.58,10.83,11.33s-4.377,11.22-10.922,11.222C908.525,513.422,904.332,508.986,904.322,502.082Zm16.951.1c.025-4.408-2.649-7.705-6.234-7.686-3.422.018-6.055,3.219-6.135,7.458-.084,4.48,2.451,7.731,6.052,7.764C918.649,509.751,921.248,506.651,921.273,502.183Z" transform="translate(-116.866 -16.296)" fill="#191919"/>
    <path id="Path_1851" data-name="Path 1851" d="M789,513.417c-3.441-.218-6.853-.856-8.6-4.493-.394-.82-1.463-2.467.167-2.843,1.206-.277,3.22-1.211,4.077.86.931,2.252,2.77,2.791,4.851,2.721,1.824-.061,4.171.191,4.537-2.345.377-2.613-2.016-2.839-3.747-3.389-1.693-.537-3.477-.783-5.18-1.294-3.357-1.007-5.2-3.249-4.91-6.048.332-3.2,2.536-4.834,5.392-5.371,3.872-.728,7.838-1.021,10.891,2.27.887.957,2.285,2.688,1.166,3.479a3.355,3.355,0,0,1-4.738-.672c-1.527-2.213-3.7-2.107-5.926-1.648-1.059.219-2.068.806-2.071,2.047a2.165,2.165,0,0,0,1.717,2.027c1.806.535,3.641.974,5.469,1.432,4.917,1.229,6.743,3.06,6.6,6.644-.137,3.444-2.739,5.748-7.346,6.463C790.63,513.371,789.885,513.361,789,513.417Z" transform="translate(-71.19 -16.251)" fill="#191919"/>
    <path id="Path_1852" data-name="Path 1852" d="M759.187,510.152c-2.07,2.089-3.657,3.247-5.715,3.522-4.846.649-8.129-1.566-8.6-6.443-.441-4.592-.174-9.249-.336-13.874-.065-1.869,1.086-1.712,2.253-1.652,1.152.06,2.654-.517,2.611,1.641-.075,3.79-.062,7.582-.006,11.372s1.107,5.13,3.928,5.29c3.218.183,5.334-1.572,5.546-5.078.222-3.672.177-7.371.042-11.05-.07-1.893.653-2.232,2.362-2.245,1.767-.013,2.338.471,2.3,2.286-.111,5.684-.054,11.371-.03,17.057.005,1.216.149,2.363-1.7,2.135C760.411,512.936,758.371,513.747,759.187,510.152Z" transform="translate(-58.305 -16.577)" fill="#191919"/>
    <path id="Path_1853" data-name="Path 1853" d="M815.683,498.569c0-1.579-.072-3.163.02-4.737.091-1.55-.028-2.759-2.077-2.406-1.136.2-1.558-.395-1.4-1.432.111-.737-.421-2.136.763-2.023,3.759.36,2.734-2.31,2.634-4.1-.118-2.139.635-2.642,2.666-2.61,1.828.029,2.347.593,2.254,2.348-.112,2.117-.915,4.837,3.064,4.246,1.51-.224.937,1.292,1.043,2.115.137,1.06-.366,1.646-1.452,1.426-2.691-.546-2.813,1-2.724,3.034.129,2.943.057,5.895.045,8.843-.007,1.607.561,2.747,2.349,2.6,1.371-.111,1.823.294,1.847,1.707.025,1.437-.556,1.7-1.825,1.823-5.342.509-7.089-.991-7.2-6.41C815.657,501.518,815.683,500.044,815.683,498.569Z" transform="translate(-83.101 -12.773)" fill="#191919"/>
    <path id="Path_1854" data-name="Path 1854" d="M944.321,498.59c0-1.474-.045-2.95.012-4.421.064-1.643.227-3.251-2.293-2.764-.868.168-1.446-.273-1.335-1.235.088-.76-.412-2.211.656-2.105,4.089.406,2.96-2.461,2.91-4.469-.044-1.74.4-2.32,2.234-2.317,1.853,0,2.665.335,2.478,2.4-.2,2.186-.758,4.855,3.174,4.191,1.554-.262.97,1.234,1.083,2.046.136.994-.193,1.7-1.359,1.473-3.067-.6-3.085,1.246-2.976,3.465.134,2.73.025,5.472.046,8.209.013,1.694.667,2.971,2.571,2.835,1.39-.1,1.764.309,1.781,1.691.018,1.435-.561,1.691-1.821,1.808-5.418.5-7.136-.985-7.16-6.386C944.315,501.537,944.321,500.063,944.321,498.59Z" transform="translate(-130.185 -12.782)" fill="#191919"/>
    <path id="Path_1855" data-name="Path 1855" d="M891,493.417c0-4.214.108-8.431-.044-12.64-.081-2.224,1.233-1.9,2.619-2,1.612-.115,2.188.356,2.171,2.079-.086,8.532-.11,17.066.015,25.6.029,1.943-.861,1.957-2.256,1.929-1.413-.029-2.653.219-2.558-2.012C891.135,502.061,891,497.736,891,493.417Z" transform="translate(-111.964 -11.86)" fill="#191919"/>
    <path id="Path_1856" data-name="Path 1856" d="M724.33,495.339c2.219-2.734,3.876-4.286,6.373-4.425,1.122-.062,2.272-.083,2.014,1.532-.172,1.076.978,2.722-1.635,2.792-3.849.1-6.035,2.573-6.221,6.509-.139,2.941-.156,5.9,0,8.837.1,1.856-.574,2.265-2.3,2.234-1.617-.029-2.43-.191-2.372-2.161.158-5.363.008-10.735.144-16.1.028-1.132-1.121-3.077,1.619-3.181C724.213,491.291,725.251,491.981,724.33,495.339Z" transform="translate(-49.354 -16.306)" fill="#191919"/>
    <path id="Path_1857" data-name="Path 1857" d="M876.577,502.557c0-2.843.137-5.7-.046-8.528-.132-2.06.68-2.46,2.535-2.431,1.709.026,2.416.385,2.376,2.278q-.18,8.526,0,17.058c.045,1.939-.738,2.183-2.386,2.217-1.819.038-2.685-.282-2.53-2.384C876.728,508.044,876.577,505.3,876.577,502.557Z" transform="translate(-106.673 -16.563)" fill="#191919"/>
    <path id="Path_1858" data-name="Path 1858" d="M630.471,509.562l.642-.627c3.964-.027,7.52-1.893,11.351-2.518q2.528,7.383,5.054,14.765l-.611.413Z" transform="translate(-16.5 -21.995)" fill="#06da8d"/>
    <path id="Path_1859" data-name="Path 1859" d="M642.835,503.91c-3.831.625-7.387,2.491-11.351,2.518,3.353-2.269,6.346-5.067,10.029-6.851A12.48,12.48,0,0,1,642.835,503.91Z" transform="translate(-16.871 -19.488)" fill="#005128"/>
    <path id="Path_1860" data-name="Path 1860" d="M878.935,483.073c-1.459.162-2.509.118-2.473-2,.034-1.973.644-2.441,2.52-2.452,1.915-.011,2.454.534,2.5,2.473C881.523,483.243,880.405,483.206,878.935,483.073Z" transform="translate(-106.655 -11.808)" fill="#191919"/>
    <path id="Path_1861" data-name="Path 1861" d="M626.534,513.145a1.145,1.145,0,0,1,1.1-.819Z" transform="translate(-15.057 -24.16)" fill="#92aab5"/>
    <path id="Path_1862" data-name="Path 1862" d="M628.43,511.945l.723-.514Z" transform="translate(-15.752 -23.832)" fill="#92aab5"/>
  </g>
</svg>
