<svg xmlns="http://www.w3.org/2000/svg" width="194.889" height="53.875" viewBox="0 0 194.889 53.875">
  <g id="Group_4373" data-name="Group 4373" transform="translate(-611.109 -582.223)">
    <g id="Group_3798" data-name="Group 3798" transform="translate(611.109 582.223)">
      <path id="Path_1863" data-name="Path 1863" d="M643.388,648.927c1.253-6.842,2.521-13.681,3.735-20.53a3.04,3.04,0,0,0-.292-1.752c-2.245-4.543-4.541-9.06-6.873-13.684,0,2.564.18,5.212-.049,7.823a31.609,31.609,0,0,1-1.426,8.309c-2.361,6.274-8.077,9.358-15.111,8.673-5.608-.546-11.3-5.373-11.93-11.432-.654-6.264-.145-12.649-.145-19.114h6.271c0,4.185-.042,8.3.019,12.409a30.068,30.068,0,0,0,.44,5.7c.874,4.162,3.927,6.624,7.724,6.516,3.711-.1,6.5-2.592,7.089-6.863a82.9,82.9,0,0,0,.421-9.391c.061-2.74.012-5.482.012-8.49,3.841,0,7.423-.056,11,.069.458.016,1.067.905,1.29,1.507,1.073,2.9,2.037,5.832,3.177,9.153,6.3-11.238,14.353-14.463,23.146-9.709a15.97,15.97,0,0,1,6.348,21.478,14.811,14.811,0,0,1-11.574,8.116c-5.025.731-9.489-.89-13.711-4.286-.933,5.442-1.794,10.469-2.656,15.495Zm30-26.913c-.041-6.562-5.067-10.9-11.1-9.577-4.46.974-9.308,9.315-7.92,13.631a2.842,2.842,0,0,0,.2.411c1.816,3.553,7.791,6.067,11.961,5.032A9.423,9.423,0,0,0,673.384,622.014Z" transform="translate(-611.109 -595.051)" fill="#14a800"/>
      <path id="Path_1864" data-name="Path 1864" d="M984.654,582.223q.053,9.2.107,18.405c.017,2.755.153,2.866,2.9,2.4,4.593-.782,6.9-3.268,7.929-8.616h6.463c-.251,6.338-3.53,10.5-9.161,13.372l11.165,16.193c-2.628,0-4.865.086-7.087-.066-.495-.034-1.012-.851-1.383-1.4-2.667-3.931-5.263-7.91-7.975-11.809a9.233,9.233,0,0,0-2.149-1.678l-.639.458v14.349h-6.617V582.223Z" transform="translate(-809.168 -582.223)" fill="#14a800"/>
      <path id="Path_1865" data-name="Path 1865" d="M793.481,628.676c1.412-5.781,2.957-11.534,4.174-17.357.5-2.391,1.373-3.487,3.895-3.075a27.274,27.274,0,0,0,4.027.033l-8.183,29.732c-2.4,0-4.7.1-6.974-.069a2.322,2.322,0,0,1-1.526-1.447c-1.639-5.655-3.161-11.343-4.735-17.017-.214-.771-.53-1.514-1.013-2.875l-5.928,21.209a3.438,3.438,0,0,1-.638.168c-2.375-.005-5.343.836-6.954-.28-1.519-1.053-1.71-4.14-2.312-6.379-2.037-7.585-4-15.192-6.026-22.941h6.723c1.642,6.676,3.305,13.432,4.968,20.188l.6.038,5.34-20.322c2.529,0,4.981-.109,7.41.079.593.046,1.422.98,1.612,1.655,1.57,5.595,3.011,11.226,4.5,16.843.166.627.414,1.232.624,1.847Z" transform="translate(-692.135 -596.216)" fill="#14a800"/>
      <path id="Path_1866" data-name="Path 1866" d="M857.939,622.155c.023-8.883,6.625-15.776,15.1-15.773,9.294,0,16.26,6.891,16.218,16.035a15.817,15.817,0,0,1-15.743,15.857C864.669,638.319,857.914,631.331,857.939,622.155Zm24.611.054c-.02-5.676-3.793-9.64-9.179-9.643-4.922,0-8.893,4.414-8.848,9.84.044,5.281,3.929,9.729,8.485,9.715C878.56,632.1,882.57,627.937,882.55,622.209Z" transform="translate(-744.28 -595.257)" fill="#14a800"/>
      <path id="Path_1867" data-name="Path 1867" d="M940.315,637.576h-6.58V608.1h6.32l.394,2.847a12.438,12.438,0,0,1,10.211-3.333c0,1.788.1,3.527-.068,5.237-.047.468-.864,1.065-1.434,1.226-.865.244-1.841.06-2.737.231-3.9.742-6,3.526-6.086,8.274C940.244,627.49,940.315,632.4,940.315,637.576Z" transform="translate(-785.174 -595.888)" fill="#14a800"/>
    </g>
  </g>
</svg>
