<svg xmlns="http://www.w3.org/2000/svg" width="447.5" height="81" viewBox="0 0 447.5 81">
  <g id="Group_4420" data-name="Group 4420" transform="translate(-1253 -2142.533)">
    <g id="Group_4411" data-name="Group 4411" transform="translate(626.541 1813.414)">
      <path id="Path_1875" data-name="Path 1875" d="M734.053,353.761c1.861-3.905,4.752-6.123,9.134-6.166,4.479-.043,7.187,2.456,8.973,6.476a14.289,14.289,0,0,1,2.025-3.279,10.434,10.434,0,0,1,11.049-2.588,8.948,8.948,0,0,1,6.118,8.709c.067,9.244.026,18.489.017,27.733,0,1.173-.4,1.545-1.609,1.555q-3.069.024-6.139,0c-1.286-.01-1.665-.428-1.665-1.733q0-11.018-.012-22.035a12.587,12.587,0,0,0-.2-2.937,3.986,3.986,0,0,0-5.966-2.539c-2.171,1.208-2.715,3.248-2.737,5.469-.07,7.161-.069,14.322-.091,21.484-.006,2.116-.173,2.29-2.321,2.3-1.827,0-3.654.018-5.481,0-1.236-.013-1.628-.407-1.631-1.658q-.023-11.018-.022-22.034a11.232,11.232,0,0,0-.373-3.034,3.673,3.673,0,0,0-3.824-3.08,4.065,4.065,0,0,0-4.14,2.929,15.482,15.482,0,0,0-.652,4.956c0,6.614-.015,13.229.005,19.843.005,1.635-.372,2.162-2.094,2.1-1.824-.071-3.653-.008-5.48-.018-1.567-.008-1.894-.356-1.893-1.964q0-2.083,0-4.166,0-14.854,0-29.709c0-1.664.323-1.993,1.976-2q2.741-.006,5.481.009a1.346,1.346,0,0,1,1.54,1.511C734.072,351.178,734.053,352.47,734.053,353.761Zm-8.236,30.49h.219V349.912h-.219Zm.475.756c-.061-.027-.135-.087-.178-.07s-.057.112-.083.172c.06.027.135.087.177.07S726.265,385.069,726.292,385.007Z" transform="translate(-60.671 -7.669)" fill="#242424"/>
      <path id="Path_1876" data-name="Path 1876" d="M656.417,364.859c0,3.049.054,5.169-.014,7.287a9.173,9.173,0,0,0,2.152,6.352c1.2,1.469,1.113,1.886-.354,3.125-1.3,1.1-2.589,2.227-3.873,3.354-1.306,1.146-1.866,1.148-3.152-.042a14.155,14.155,0,0,1-2.477-3.012c-.449-.735-.743-.78-1.335-.142a13.527,13.527,0,0,1-10.985,4.307c-5.721-.209-9.56-3.867-9.888-9.584-.235-4.086.819-7.7,4.063-10.454a16.443,16.443,0,0,1,7.623-3.3,64.45,64.45,0,0,1,7.594-.971c.749-.062,1.056-.277.981-1.05-.067-.688-.042-1.386-.044-2.08-.008-3.71-2.768-4.985-5.494-4.629a5.062,5.062,0,0,0-4.7,4.062,1.434,1.434,0,0,1-1.829,1.231c-1.8-.263-3.626-.392-5.44-.588-1.472-.159-1.831-.661-1.491-2.118a11.343,11.343,0,0,1,7.382-8.518c5.333-2,10.7-2.15,15.928.392a9.136,9.136,0,0,1,5.211,7.892C656.573,359.5,656.357,362.649,656.417,364.859Zm-9.67,4.8a10.963,10.963,0,0,1,.013-1.53c.121-.845-.28-1-1-.927-.833.088-1.676.085-2.506.191-4.575.588-6.969,3.159-6.721,7.27a4.522,4.522,0,0,0,1.993,3.9c2.129,1.328,5.061.347,6.666-2.094A11.567,11.567,0,0,0,646.747,369.656Z" transform="translate(0 -7.045)" fill="#242424"/>
      <path id="Path_1877" data-name="Path 1877" d="M891.119,365.168c0,2.229.062,4.459-.016,6.685a9.8,9.8,0,0,0,2.135,6.6c1.238,1.591,1.173,1.818-.329,3.124-1.34,1.164-2.671,2.34-4,3.512-1.095.964-1.708.945-2.833-.057a13.786,13.786,0,0,1-2.717-3.26c-.35-.589-.633-.717-1.2-.106a13.513,13.513,0,0,1-12.6,4.218c-4.393-.66-7.282-3.257-8.084-7.583-1.088-5.868.664-11.105,6.482-14.013a23.773,23.773,0,0,1,7.782-2.019c1.628-.205,3.258-.4,4.892-.535.636-.053.9-.237.852-.919-.1-1.518.127-3.06-.551-4.522a3.72,3.72,0,0,0-1.315-1.55c-2.311-1.571-7.215-1-8.3,2.959-.443,1.616-.556,1.682-2.191,1.521-1.779-.175-3.558-.351-5.33-.581-1.34-.173-1.652-.672-1.346-2.021a11.094,11.094,0,0,1,6.077-7.942,19.489,19.489,0,0,1,16.92-.417c3.739,1.634,5.461,4.8,5.609,8.8.1,2.7.019,5.4.019,8.108Zm-9.652,4.432c0-.584-.018-1.169.006-1.752.021-.5-.12-.753-.678-.7a24.748,24.748,0,0,0-4.956.72c-4.26,1.257-5.331,5.146-4.24,8.571a3.832,3.832,0,0,0,4.27,2.639,5.487,5.487,0,0,0,4.031-2.665C881.305,374.347,881.487,372,881.467,369.6Z" transform="translate(-144.441 -7.017)" fill="#242424"/>
      <path id="Path_1878" data-name="Path 1878" d="M1140.335,354.445c.78-1.139,1.346-2.339,2.133-3.424,2.813-3.879,8.31-4.194,11.872-2.457a8.779,8.779,0,0,1,4.835,6.569,36.13,36.13,0,0,1,.517,7.2c.024,7.31.015,14.619.013,21.929,0,1.608-.3,1.91-1.917,1.919q-2.851.015-5.7,0c-1.521-.01-1.861-.37-1.863-1.878q-.011-11.074-.037-22.148a11.448,11.448,0,0,0-.244-2.17c-.448-2.251-1.657-3.5-3.47-3.657a4.583,4.583,0,0,0-4.638,3.075,17.475,17.475,0,0,0-.97,6.561q0,9.155-.006,18.311c0,1.645-.263,1.9-1.926,1.907-1.937.007-3.874.015-5.811,0-1.315-.012-1.677-.327-1.68-1.6q-.035-17.379-.038-34.757a1.318,1.318,0,0,1,1.494-1.478c2.01,0,4.021,0,6.031-.006a1.233,1.233,0,0,1,1.406,1.4Q1140.336,352.091,1140.335,354.445Z" transform="translate(-310.754 -7.646)" fill="#242424"/>
      <path id="Path_1879" data-name="Path 1879" d="M1036.866,367.851c-.038-5.221.851-9.871,3.577-14.071,5.532-8.523,19.34-8.593,24.531,1.063,4.237,7.879,4.474,16.131.328,24.114a14.44,14.44,0,0,1-21.288,5.353c-3.948-2.852-5.757-7.023-6.669-11.657A24.065,24.065,0,0,1,1036.866,367.851Zm10.147-1.117c0,.438-.013.876,0,1.314.1,2.947.152,5.9,1.4,8.666a4.153,4.153,0,0,0,3.76,2.852,4.395,4.395,0,0,0,4.342-2.7,15.6,15.6,0,0,0,1.356-6.681,38.319,38.319,0,0,0-.921-11.828,4.385,4.385,0,0,0-4.878-3.566c-2.227.137-3.413,1.589-4.106,3.516C1046.987,361.035,1047.015,363.89,1047.014,366.735Z" transform="translate(-252.573 -7.606)" fill="#242424"/>
      <path id="Path_1880" data-name="Path 1880" d="M970.687,374.933a30.653,30.653,0,0,1,7.16.629,23.016,23.016,0,0,1,5.513,2.029,2.427,2.427,0,0,1,1.332,2.336c-.008,1.681.028,3.362-.007,5.041a1.207,1.207,0,0,1-1.866,1.148,26.1,26.1,0,0,0-16.16-2.4,24.858,24.858,0,0,0-7.138,2.334c-1.2.592-1.994.108-2-1.236-.015-1.9-.012-3.8.02-5.7a5.059,5.059,0,0,1,.942-2.853q6.447-9.244,12.883-18.5c.139-.2.437-.38.334-.641-.143-.364-.511-.17-.777-.17q-5.1-.012-10.194,0c-1.573,0-1.9-.28-1.927-1.8-.024-1.388-.023-2.777-.006-4.165.016-1.254.382-1.646,1.615-1.648q10.962-.018,21.923,0c1.346,0,1.563.4,1.721,1.769a11.093,11.093,0,0,1-2.581,8.328c-3.528,4.664-6.773,9.541-10.129,14.335C971.12,374.09,970.959,374.447,970.687,374.933Z" transform="translate(-203.735 -8.74)" fill="#242424"/>
      <path id="Path_1881" data-name="Path 1881" d="M727.87,444.764c-.026.061-.04.155-.084.172s-.117-.043-.177-.07c.026-.061.04-.155.083-.172S727.81,444.737,727.87,444.764Z" transform="translate(-62.25 -67.426)" fill="#050505"/>
      <g id="Group_3831" data-name="Group 3831" transform="translate(657.625 382.804)">
        <path id="Path_1882" data-name="Path 1882" d="M768.71,486.407c3.147-.364,9.438-.771,15.6-1.874a76.987,76.987,0,0,0,31.394-12.8c.964-.683,1.922-1.454,1.224-2.745-.674-1.247-1.836-1.047-2.956-.561-.36.156-.733.283-1.1.431a115.03,115.03,0,0,1-34.069,8.261,118.793,118.793,0,0,1-61.431-11.074c-2.741-1.286-5.355-2.838-8.077-4.166-.476-.232-1.2.04-1.805.079.172.582.328,1.171.527,1.743.048.138.242.227.368.338C724.754,478.384,743.885,485.608,768.71,486.407Zm45.976-22.672c1.155.083,3.07.114,4.951.385,2.027.292,2.722,1.075,2.449,3.093a45.049,45.049,0,0,1-1.533,6.7c-.6,2.039-1.48,4-2.182,6.009a3.6,3.6,0,0,0,.028,1.235,4.643,4.643,0,0,0,1.382-.216,4.3,4.3,0,0,0,1.136-.989,25.789,25.789,0,0,0,6.874-16.773c.125-2.3-.38-2.874-2.611-3.419a26.366,26.366,0,0,0-10.707-.238,19.314,19.314,0,0,0-8.4,3.25c-.373.272-.49.894-.726,1.354a4.561,4.561,0,0,0,1.365.336C809.12,464.285,811.522,464.034,814.686,463.736Z" transform="translate(-707.499 -459.092)" fill="#fc9a05"/>
        <path id="Path_1883" data-name="Path 1883" d="M768.71,490.714c-24.826-.8-43.956-8.023-60.316-22.371-.127-.111-.32-.2-.368-.338-.2-.573-.355-1.161-.527-1.743.608-.039,1.329-.312,1.805-.079,2.722,1.328,5.337,2.88,8.077,4.166a118.793,118.793,0,0,0,61.431,11.074,115.03,115.03,0,0,0,34.069-8.261c.363-.149.736-.275,1.1-.432,1.12-.486,2.282-.686,2.956.561.7,1.291-.26,2.062-1.224,2.745a76.988,76.988,0,0,1-31.394,12.8C778.149,489.943,771.858,490.35,768.71,490.714Z" transform="translate(-707.499 -463.398)" fill="#fc9a05"/>
        <path id="Path_1884" data-name="Path 1884" d="M971.268,463.736c-3.164.3-5.566.549-7.973.73a4.562,4.562,0,0,1-1.365-.336c.236-.46.353-1.082.726-1.354a19.314,19.314,0,0,1,8.4-3.25,26.366,26.366,0,0,1,10.707.238c2.231.545,2.736,1.123,2.611,3.419a25.789,25.789,0,0,1-6.874,16.773,4.3,4.3,0,0,1-1.136.989,4.644,4.644,0,0,1-1.382.216,3.61,3.61,0,0,1-.028-1.235c.7-2.013,1.578-3.97,2.182-6.009a45.049,45.049,0,0,0,1.533-6.7c.272-2.018-.423-2.8-2.449-3.093C974.339,463.85,972.424,463.819,971.268,463.736Z" transform="translate(-864.081 -459.092)" fill="#fc9a05"/>
      </g>
      <rect id="Rectangle_1589" data-name="Rectangle 1589" width="1" height="35" transform="translate(664.459 341.693)" fill="#242424"/>
    </g>
    <text id="Store_Management" data-name="Store 
Management" transform="translate(1506.5 2174.533)" fill="#242424" font-size="30" font-family="Manrope-ExtraBold, Manrope" font-weight="800"><tspan x="0" y="0">Store </tspan><tspan x="0" y="39">Management</tspan></text>
  </g>
</svg>
