<svg width="49" height="49" viewBox="0 0 49 49" fill="none" xmlns="http://www.w3.org/2000/svg">
<circle cx="24.5" cy="24.5" r="24.5" fill="#191919"/>
<path d="M0 24.5C-2.81273e-07 27.7174 0.633711 30.9033 1.86495 33.8757C3.09619 36.8482 4.90085 39.5491 7.17588 41.8241C9.45092 44.0992 12.1518 45.9038 15.1243 47.135C18.0967 48.3663 21.2826 49 24.5 49C27.7174 49 30.9033 48.3663 33.8757 47.135C36.8482 45.9038 39.5491 44.0992 41.8241 41.8241C44.0992 39.5491 45.9038 36.8482 47.135 33.8757C48.3663 30.9033 49 27.7174 49 24.5H45.1348C45.1348 27.2098 44.6011 29.8931 43.5641 32.3966C42.5271 34.9001 41.0072 37.1749 39.091 39.091C37.1749 41.0072 34.9001 42.5271 32.3966 43.5641C29.8931 44.6011 27.2098 45.1348 24.5 45.1348C21.7902 45.1348 19.1069 44.6011 16.6034 43.5641C14.0999 42.5271 11.8251 41.0072 9.90897 39.091C7.99284 37.1749 6.47289 34.9001 5.4359 32.3966C4.3989 29.8931 3.86516 27.2098 3.86516 24.5H0Z" fill="#53FD78" fill-opacity="0.1"/>
<path d="M30.5002 35.2013L25.0847 29.7859L19.6858 35.1842C19.6829 35.1872 19.6804 35.1901 19.6775 35.193C18.3791 36.4913 16.2736 36.4913 14.9748 35.193C13.6764 33.8946 13.6764 31.7891 14.9748 30.4903C14.9777 30.4874 14.9806 30.4849 14.9835 30.482L20.382 25.0836L14.9835 19.6848C14.9806 19.6819 14.9777 19.6794 14.9748 19.6765C13.6764 18.3781 13.6764 16.2726 14.9748 14.9739C16.2732 13.6755 18.3787 13.6755 19.6775 14.9739C19.6804 14.9768 19.6829 14.9797 19.6858 14.9826L25.0843 20.381L30.4998 14.9655C31.799 13.6755 33.8978 13.6784 35.1937 14.9739C36.4896 16.2697 36.4921 18.3686 35.2021 19.6678L29.7866 25.0832L35.2021 30.4986C36.4921 31.7978 36.4892 33.8967 35.1937 35.1926C33.8987 36.4884 31.7994 36.4913 30.5002 35.2013Z" fill="white"/>
</svg>
